<?xml version="1.0" encoding="utf-8"?>
<!-- Generator: Adobe Illustrator 25.2.1, SVG Export Plug-In . SVG Version: 6.00 Build 0)  -->
<svg version="1.1" baseProfile="tiny" id="Layer_1" xmlns="http://www.w3.org/2000/svg" xmlns:xlink="http://www.w3.org/1999/xlink"
	 x="0px" y="0px" viewBox="0 0 355.32 102.74" overflow="visible" xml:space="preserve">
<g>
	<g>
		<path fill="#F2CF22" d="M173.63,78.84"/>
		<g>
			<path fill="#F8C319" d="M164.94,71.88c0.33,3.81,1.94,6.93,4.68,8.85c2.25,1.58,4.91,1.86,7.9,0.84
				c3.72-1.27,4.86-4.59,5.18-5.96c0.44-1.9,1.05-6.41-3.83-14.08c-3.72-5.85-5.79-11.35-5.79-11.35
				C166.05,59.2,164.57,67.64,164.94,71.88z"/>
		</g>
		<g>
			<path fill="#126B37" d="M193.99,2.38l-1.21-2.29c-0.08-0.16-0.32-0.11-0.35,0.06c-1.5,9.34-5.49,12.79-9.7,16.43
				c-2.49,2.15-5.06,4.37-7.17,8c-3.85,6.62-3.85,12.72-1.65,18.57c0.06,0.15,0.25,0.15,0.34,0.03c1.39-1.96,3.5-3.86,10.02-9.8
				c10.65-9.68,10.16-18.17,10.16-18.17c1.94,12.8-9.58,19.04-18.95,31.96c-0.04,0.05-0.01,0.12,0.01,0.18
				c0.89,2.45,2.17,5.14,2.93,6.44c0.08,0.13,0.28,0.06,0.31-0.09c0.68-3.47,4.25-9.92,12.81-19.76
				C203.28,20.44,196.59,7.29,193.99,2.38z"/>
		</g>
	</g>
</g>
</svg>
